# xmcd CD database file
#
# Track frame offsets:
#	150
#	16587
#	36130
#	54897
#	69910
#	80132
#	98795
#	113010
#	130715
#	146377
#	166247
#	180147
#
# Disc length: 2549 seconds
#
# Revision: 1
# Processed by: cddbd v1.4PL0 Copyright (c) Steve Scherf et al.
# Submitted via: CDex 1.40Beta9
#
DISCID=8409f30c
DTITLE=Tamra Rosanes - Like i like it
DYEAR=2000
DGENRE=Country
TTITLE0=Miracles
TTITLE1=Two hearts
TTITLE2=I bet you say that to all
TTITLE3=The girls
TTITLE4=For you
TTITLE5=In on that
TTITLE6=Your Eyes
TTITLE7=Still looking
TTITLE8=Waiting for you to love me
TTITLE9=He´s an asshole (but he´s my asshole)
TTITLE10=I´d give it all up for your love
TTITLE11=Never ending game of love
EXTD=YEAR: 2000 ID3G: 2
EXTT0=
EXTT1=
EXTT2=
EXTT3=
EXTT4=
EXTT5=
EXTT6=
EXTT7=
EXTT8=
EXTT9=
EXTT10=
EXTT11=
PLAYORDER=
